<?xml version="1.0" encoding="utf-8"?>
<!-- Generator: Adobe Illustrator 16.0.3, SVG Export Plug-In . SVG Version: 6.00 Build 0)  -->
<!DOCTYPE svg PUBLIC "-//W3C//DTD SVG 1.1//EN" "http://www.w3.org/Graphics/SVG/1.1/DTD/svg11.dtd">
<svg version="1.1" xmlns="http://www.w3.org/2000/svg" xmlns:xlink="http://www.w3.org/1999/xlink" x="0px" y="0px"
	 width="595.28px" height="595.28px" viewBox="0 0 595.28 595.28" enable-background="new 0 0 595.28 595.28" xml:space="preserve">
<g id="Capa_2">
</g>
<g id="Capa_1">
	<g>
		<path fill="none" stroke="#000000" stroke-miterlimit="10" d="M259.749,530.299C89.68,458.19,132.538,312.611,168.592,256.149"/>
		<path fill="none" stroke="#000000" stroke-miterlimit="10" d="M178.116,312.611c-25.17-14.971-7.268-56.462-9.524-56.462"/>
		<path fill="none" stroke="#000000" stroke-miterlimit="10" d="M178.116,312.611c19.728-117.006,165.306-132.313,87.755-264.625"/>
		<path fill="none" stroke="#000000" stroke-miterlimit="10" d="M265.871,47.986c71.428,78.912,76.191,75.85,127.891,151.701"/>
		<path fill="none" stroke="#000000" stroke-miterlimit="10" d="M393.762,199.687c0,6.368,17.688-31.292-4.081-54.422"/>
		<path fill="none" stroke="#000000" stroke-miterlimit="10" d="M389.681,145.265c118.367,101.361,67.347,256.463,55.782,276.19"/>
		<path fill="none" stroke="#000000" stroke-miterlimit="10" d="M445.463,421.455c-20.408,47.619-70.979,71.883-73.47,108.844"/>
		<path fill="none" stroke="#000000" stroke-miterlimit="10" d="M371.993,530.299c4.082-60.544,20.396-57.823,36.735-108.844"/>
		<path fill="none" stroke="#000000" stroke-miterlimit="10" d="M408.729,421.455c2.721-65.306-36.735-131.973-56.463-148.299"/>
		<path fill="none" stroke="#000000" stroke-miterlimit="10" d="M352.266,273.156c14.285,116.327-170.068,166.667-92.517,257.143"/>
		<path fill="none" stroke="#000000" stroke-miterlimit="10" d="M186.279,230.299c9.713-21.156,47-37.415,54.35-50"/>
		<path fill="none" stroke="#000000" stroke-miterlimit="10" d="M240.628,180.299c-34.712-28.363-8.526-77.869-36.905-88.784"/>
		<path fill="none" stroke="#000000" stroke-miterlimit="10" d="M203.724,91.515c16.609,13.533-10.737,65.416-17.445,138.784"/>
	</g>
</g>
</svg>
