<?xml version="1.0" encoding="utf-8"?>
<!-- Generator: Adobe Illustrator 16.0.3, SVG Export Plug-In . SVG Version: 6.00 Build 0)  -->
<!DOCTYPE svg PUBLIC "-//W3C//DTD SVG 1.1//EN" "http://www.w3.org/Graphics/SVG/1.1/DTD/svg11.dtd">
<svg version="1.1" xmlns="http://www.w3.org/2000/svg" xmlns:xlink="http://www.w3.org/1999/xlink" x="0px" y="0px"
	 width="595.28px" height="595.28px" viewBox="0 0 595.28 595.28" enable-background="new 0 0 595.28 595.28" xml:space="preserve">
<g id="Capa_2">
</g>
<g id="Capa_1">
	<g>
		<g>
			<linearGradient id="SVGID_1_" gradientUnits="userSpaceOnUse" x1="352.2656" y1="273.1558" x2="352.2656" y2="273.1558">
				<stop  offset="0" style="stop-color:#FFFF25"/>
				<stop  offset="0.0595" style="stop-color:#FEE916"/>
				<stop  offset="0.1303" style="stop-color:#FED50E"/>
				<stop  offset="0.2032" style="stop-color:#FECA06"/>
				<stop  offset="0.2809" style="stop-color:#FEC600"/>
				<stop  offset="0.6685" style="stop-color:#FB7B1E"/>
				<stop  offset="0.8876" style="stop-color:#F9441B"/>
				<stop  offset="1" style="stop-color:#F71818"/>
			</linearGradient>
			<path fill="url(#SVGID_1_)" d="M352.266,273.156"/>
			<linearGradient id="SVGID_2_" gradientUnits="userSpaceOnUse" x1="209.0449" y1="508.209" x2="196.9761" y2="487.3051">
				<stop  offset="0" style="stop-color:#FFFF25"/>
				<stop  offset="0.0595" style="stop-color:#FEE916"/>
				<stop  offset="0.1303" style="stop-color:#FED50E"/>
				<stop  offset="0.2032" style="stop-color:#FECA06"/>
				<stop  offset="0.2809" style="stop-color:#FEC600"/>
				<stop  offset="0.6685" style="stop-color:#FB7B1E"/>
				<stop  offset="0.8876" style="stop-color:#F9441B"/>
				<stop  offset="1" style="stop-color:#F71818"/>
			</linearGradient>
			<path fill="url(#SVGID_2_)" d="M213.454,505.663l-20.886-15.813"/>
			<g id="XMLID_1_">
				<g>
				</g>
				<g>
				</g>
			</g>
		</g>
		<g>
			<linearGradient id="SVGID_3_" gradientUnits="userSpaceOnUse" x1="404.7246" y1="511.4023" x2="169.3462" y2="103.715">
				<stop  offset="0" style="stop-color:#FFFF25"/>
				<stop  offset="0.0595" style="stop-color:#FEE916"/>
				<stop  offset="0.1303" style="stop-color:#FED50E"/>
				<stop  offset="0.2032" style="stop-color:#FECA06"/>
				<stop  offset="0.2809" style="stop-color:#FEC600"/>
				<stop  offset="0.6685" style="stop-color:#FB7B1E"/>
				<stop  offset="0.8876" style="stop-color:#F9441B"/>
				<stop  offset="1" style="stop-color:#F71818"/>
			</linearGradient>
			<path fill="url(#SVGID_3_)" d="M265.871,47.986c77.551,132.313-68.027,147.619-87.755,264.625
				c-25.17-14.971-7.268-56.462-9.524-56.462c-36.054,56.462-78.912,202.042,91.157,274.15
				c-77.551-90.477,106.802-140.816,92.517-257.143c19.728,16.327,59.184,82.994,56.463,148.299
				c-16.339,51.021-32.653,48.3-36.735,108.844c2.49-36.961,53.062-61.225,73.47-108.844c11.564-19.728,62.585-174.83-55.782-276.19
				c21.769,23.129,4.081,60.79,4.081,54.422C342.062,123.836,337.299,126.897,265.871,47.986z"/>
			<linearGradient id="SVGID_4_" gradientUnits="userSpaceOnUse" x1="224.8691" y1="208.0195" x2="169.1353" y2="111.4856">
				<stop  offset="0" style="stop-color:#FFFF25"/>
				<stop  offset="0" style="stop-color:#FEE916"/>
				<stop  offset="0" style="stop-color:#FED50E"/>
				<stop  offset="0" style="stop-color:#FECA06"/>
				<stop  offset="0" style="stop-color:#FEC600"/>
				<stop  offset="0.0676" style="stop-color:#FB7B1E"/>
				<stop  offset="0.1379" style="stop-color:#FB781E"/>
				<stop  offset="0.8876" style="stop-color:#F9441B"/>
				<stop  offset="1" style="stop-color:#F71818"/>
			</linearGradient>
			<path fill="url(#SVGID_4_)" d="M240.628,180.299c-7.349,12.585-44.637,28.844-54.35,50
				c6.708-73.368,34.054-125.25,17.445-138.784C232.103,102.43,205.917,151.936,240.628,180.299z"/>
		</g>
	</g>
</g>
</svg>
